<svg width="34" height="34" viewBox="0 0 34 34" fill="none" xmlns="http://www.w3.org/2000/svg">
<mask id="path-1-inside-1_211_2338" fill="white">
<path d="M20.0111 16.7646C19.8435 16.7646 19.6879 16.7185 19.5496 16.6444V16.6463C19.5496 16.91 19.4471 17.1577 19.2612 17.3431C19.0752 17.5291 18.8277 17.6316 18.5643 17.6316C18.3943 17.6316 18.2367 17.5844 18.097 17.5083C18.0828 17.7495 17.9864 17.975 17.8144 18.1472C17.6284 18.3332 17.381 18.4357 17.1174 18.4357C16.5938 18.4357 16.1685 18.024 16.1379 17.5081C15.9759 17.5957 15.7927 17.6416 15.6037 17.6295C15.0886 17.5957 14.6852 17.1506 14.6852 16.616V12.1844L14.1806 13.0586C13.9884 13.393 13.6286 13.6006 13.2412 13.6006C13.0525 13.6006 12.866 13.5511 12.7009 13.4564C12.4952 13.3372 12.3481 13.1458 12.287 12.9169C12.2255 12.6878 12.2573 12.4482 12.3762 12.2429C12.3763 12.2429 14.0273 9.38395 14.128 9.20834C14.1399 9.18194 14.1741 9.10536 14.2031 9.04009C14.2308 8.97777 14.2546 8.91381 14.2774 8.84953C14.7752 7.44397 16.008 6.57087 17.4947 6.57087C19.4254 6.57087 20.9961 8.27408 20.9961 10.3676L20.9963 15.7791C20.9963 16.0425 20.894 16.29 20.7082 16.4761C20.5222 16.6621 20.2747 16.7646 20.0111 16.7646L20.0111 16.7646ZM17.4948 7.09441C16.2172 7.09441 15.199 7.816 14.7708 9.02462C14.7435 9.10137 14.7149 9.17811 14.6816 9.2529C14.585 9.46953 14.585 9.46953 14.5578 9.50069L14.5542 9.49757C14.4194 9.75192 14.0189 10.4454 12.8295 12.5049C12.7806 12.5893 12.7677 12.6874 12.7926 12.7812C12.8179 12.875 12.8784 12.954 12.9622 13.0024C13.2223 13.1518 13.5785 13.0554 13.7267 12.7971L14.7203 11.0768C14.7797 10.9743 14.8997 10.924 15.0149 10.9551C15.1293 10.9858 15.2089 11.0896 15.2089 11.208V16.6161C15.2089 16.8713 15.4014 17.0915 15.6381 17.1071C15.7745 17.1143 15.9018 17.0686 15.9974 16.9731C16.0843 16.8862 16.1322 16.7704 16.1322 16.6466V13.1096C16.1322 12.965 16.2494 12.8477 16.3941 12.8477C16.5387 12.8477 16.656 12.9648 16.656 13.1096L16.6558 17.4506C16.6558 17.7051 16.8629 17.9122 17.1174 17.9122C17.2411 17.9122 17.3572 17.8643 17.4443 17.7774C17.5312 17.6903 17.5791 17.5742 17.5791 17.4506V13.1096C17.5791 12.965 17.6962 12.8477 17.841 12.8477C17.9856 12.8477 18.1029 12.9648 18.1029 13.1096L18.1027 16.6059V16.6466C18.1027 16.901 18.3098 17.1081 18.5645 17.1081C18.688 17.1081 18.8038 17.06 18.8913 16.9728C18.9783 16.886 19.0261 16.7703 19.0261 16.6464V13.1094C19.0261 12.9648 19.1432 12.8476 19.288 12.8476C19.4327 12.8476 19.5499 12.9646 19.5499 13.1094L19.5496 15.7793C19.5496 16.0339 19.7567 16.2411 20.0111 16.2411C20.1349 16.2411 20.2507 16.193 20.3376 16.1063C20.4248 16.019 20.4725 15.9029 20.4725 15.7793L20.4727 10.3678C20.4727 8.56304 19.1368 7.09446 17.4947 7.09446L17.4948 7.09441Z"/>
</mask>
<path d="M20.0111 16.7646C19.8435 16.7646 19.6879 16.7185 19.5496 16.6444V16.6463C19.5496 16.91 19.4471 17.1577 19.2612 17.3431C19.0752 17.5291 18.8277 17.6316 18.5643 17.6316C18.3943 17.6316 18.2367 17.5844 18.097 17.5083C18.0828 17.7495 17.9864 17.975 17.8144 18.1472C17.6284 18.3332 17.381 18.4357 17.1174 18.4357C16.5938 18.4357 16.1685 18.024 16.1379 17.5081C15.9759 17.5957 15.7927 17.6416 15.6037 17.6295C15.0886 17.5957 14.6852 17.1506 14.6852 16.616V12.1844L14.1806 13.0586C13.9884 13.393 13.6286 13.6006 13.2412 13.6006C13.0525 13.6006 12.866 13.5511 12.7009 13.4564C12.4952 13.3372 12.3481 13.1458 12.287 12.9169C12.2255 12.6878 12.2573 12.4482 12.3762 12.2429C12.3763 12.2429 14.0273 9.38395 14.128 9.20834C14.1399 9.18194 14.1741 9.10536 14.2031 9.04009C14.2308 8.97777 14.2546 8.91381 14.2774 8.84953C14.7752 7.44397 16.008 6.57087 17.4947 6.57087C19.4254 6.57087 20.9961 8.27408 20.9961 10.3676L20.9963 15.7791C20.9963 16.0425 20.894 16.29 20.7082 16.4761C20.5222 16.6621 20.2747 16.7646 20.0111 16.7646L20.0111 16.7646ZM17.4948 7.09441C16.2172 7.09441 15.199 7.816 14.7708 9.02462C14.7435 9.10137 14.7149 9.17811 14.6816 9.2529C14.585 9.46953 14.585 9.46953 14.5578 9.50069L14.5542 9.49757C14.4194 9.75192 14.0189 10.4454 12.8295 12.5049C12.7806 12.5893 12.7677 12.6874 12.7926 12.7812C12.8179 12.875 12.8784 12.954 12.9622 13.0024C13.2223 13.1518 13.5785 13.0554 13.7267 12.7971L14.7203 11.0768C14.7797 10.9743 14.8997 10.924 15.0149 10.9551C15.1293 10.9858 15.2089 11.0896 15.2089 11.208V16.6161C15.2089 16.8713 15.4014 17.0915 15.6381 17.1071C15.7745 17.1143 15.9018 17.0686 15.9974 16.9731C16.0843 16.8862 16.1322 16.7704 16.1322 16.6466V13.1096C16.1322 12.965 16.2494 12.8477 16.3941 12.8477C16.5387 12.8477 16.656 12.9648 16.656 13.1096L16.6558 17.4506C16.6558 17.7051 16.8629 17.9122 17.1174 17.9122C17.2411 17.9122 17.3572 17.8643 17.4443 17.7774C17.5312 17.6903 17.5791 17.5742 17.5791 17.4506V13.1096C17.5791 12.965 17.6962 12.8477 17.841 12.8477C17.9856 12.8477 18.1029 12.9648 18.1029 13.1096L18.1027 16.6059V16.6466C18.1027 16.901 18.3098 17.1081 18.5645 17.1081C18.688 17.1081 18.8038 17.06 18.8913 16.9728C18.9783 16.886 19.0261 16.7703 19.0261 16.6464V13.1094C19.0261 12.9648 19.1432 12.8476 19.288 12.8476C19.4327 12.8476 19.5499 12.9646 19.5499 13.1094L19.5496 15.7793C19.5496 16.0339 19.7567 16.2411 20.0111 16.2411C20.1349 16.2411 20.2507 16.193 20.3376 16.1063C20.4248 16.019 20.4725 15.9029 20.4725 15.7793L20.4727 10.3678C20.4727 8.56304 19.1368 7.09446 17.4947 7.09446L17.4948 7.09441Z" fill="#4CAF4F"/>
<path d="M20.0111 16.7646V15.8365H23.2901L20.4975 17.555L20.0111 16.7646ZM19.5496 16.6444H18.6215V15.0936L19.9882 15.8264L19.5496 16.6444ZM19.2612 17.3431L18.6049 16.6869L18.6058 16.686L19.2612 17.3431ZM18.097 17.5083L17.1704 17.4541L17.2558 15.9934L18.5408 16.6932L18.097 17.5083ZM17.8144 18.1472L18.471 18.8031L18.4707 18.8035L17.8144 18.1472ZM16.1379 17.5081L15.6966 16.6916L16.978 15.9991L17.0643 17.4531L16.1379 17.5081ZM15.6037 17.6295L15.5442 18.5557L15.543 18.5556L15.6037 17.6295ZM14.6852 12.1844L13.8814 11.7204L15.6133 8.71998V12.1844H14.6852ZM14.1806 13.0586L13.3759 12.5961L13.3768 12.5946L14.1806 13.0586ZM12.7009 13.4564L12.2395 14.2617L12.2354 14.2593L12.7009 13.4564ZM12.287 12.9169L13.1833 12.6763L13.1836 12.6773L12.287 12.9169ZM12.3762 12.2429L11.573 11.7778L11.8411 11.3148H12.3762V12.2429ZM14.128 9.20834L14.9732 9.5916L14.955 9.63179L14.9331 9.67007L14.128 9.20834ZM14.2031 9.04009L13.3551 8.66296L13.3551 8.66295L14.2031 9.04009ZM14.2774 8.84953L15.1522 9.1594L15.1521 9.15966L14.2774 8.84953ZM20.9961 10.3676L20.068 10.3677V10.3676H20.9961ZM20.9963 15.7791L21.9244 15.7791V15.7791H20.9963ZM20.7082 16.4761L21.365 17.1318L21.3644 17.1324L20.7082 16.4761ZM20.0111 16.7646V17.6927H16.7321L19.5246 15.9742L20.0111 16.7646ZM17.4948 7.09441V6.16632H18.7252L18.3871 7.34938L17.4948 7.09441ZM14.7708 9.02462L15.6457 9.33454L15.6449 9.33654L14.7708 9.02462ZM14.6816 9.2529L15.5295 9.63035L15.5293 9.63084L14.6816 9.2529ZM14.5578 9.50069L15.2567 10.1113L14.6496 10.8062L13.9512 10.2031L14.5578 9.50069ZM14.5542 9.49757L13.7342 9.06297L14.2795 8.03401L15.1608 8.79517L14.5542 9.49757ZM12.8295 12.5049L13.6332 12.969L13.6328 12.9697L12.8295 12.5049ZM12.7926 12.7812L11.8964 13.0225L11.8956 13.0196L12.7926 12.7812ZM12.9622 13.0024L12.4999 13.8072L12.4982 13.8062L12.9622 13.0024ZM13.7267 12.7971L12.9218 12.3351L12.923 12.3329L13.7267 12.7971ZM14.7203 11.0768L13.9167 10.6126L13.9172 10.6116L14.7203 11.0768ZM15.0149 10.9551L14.7747 11.8516L14.7724 11.851L15.0149 10.9551ZM15.6381 17.1071L15.589 18.034L15.5771 18.0332L15.6381 17.1071ZM15.9974 16.9731L16.6536 17.6294L16.653 17.63L15.9974 16.9731ZM16.656 13.1096H17.584V13.1097L16.656 13.1096ZM16.6558 17.4506H15.7277V17.4505L16.6558 17.4506ZM17.4443 17.7774L18.1011 18.4331L18.0999 18.4343L17.4443 17.7774ZM18.1029 13.1096H19.031V13.1097L18.1029 13.1096ZM18.1027 16.6059H17.1746V16.6059L18.1027 16.6059ZM18.8913 16.9728L19.547 17.6297L19.5464 17.6303L18.8913 16.9728ZM19.5499 13.1094H20.478V13.1096L19.5499 13.1094ZM19.5496 15.7793H18.6215V15.7791L19.5496 15.7793ZM20.3376 16.1063L20.9938 16.7625L20.9932 16.7631L20.3376 16.1063ZM20.4725 15.7793H19.5444V15.7792L20.4725 15.7793ZM20.4727 10.3678H21.4008V10.3678L20.4727 10.3678ZM17.4947 7.09446V8.02256H16.2643L16.6024 6.8395L17.4947 7.09446ZM20.0111 17.6927C19.6693 17.6927 19.3642 17.598 19.111 17.4623L19.9882 15.8264C20.0002 15.8329 20.0078 15.8353 20.0108 15.8361C20.0134 15.8368 20.0131 15.8365 20.0111 15.8365V17.6927ZM20.4777 16.6444V16.6463H18.6215V16.6444H20.4777ZM20.4777 16.6463C20.4777 17.1554 20.2779 17.6398 19.9165 18.0003L18.6058 16.686C18.6124 16.6794 18.6157 16.6737 18.6176 16.6691C18.6195 16.6644 18.6215 16.6573 18.6215 16.6463H20.4777ZM19.9174 17.9994C19.5572 18.3596 19.0737 18.5597 18.5643 18.5597V16.7035C18.575 16.7035 18.582 16.7016 18.5868 16.6996C18.5915 16.6976 18.5976 16.6941 18.6049 16.6869L19.9174 17.9994ZM18.5643 18.5597C18.2181 18.5597 17.9092 18.4628 17.6531 18.3234L18.5408 16.6932C18.5529 16.6998 18.5606 16.7023 18.5636 16.7031C18.5662 16.7038 18.566 16.7035 18.5643 16.7035V18.5597ZM19.0235 17.5624C18.9968 18.0193 18.8114 18.4623 18.471 18.8031L17.1578 17.4913C17.1612 17.4878 17.1632 17.4848 17.1649 17.481C17.1667 17.4768 17.1696 17.4683 17.1704 17.4541L19.0235 17.5624ZM18.4707 18.8035C18.1104 19.1637 17.6268 19.3638 17.1174 19.3638V17.5076C17.1282 17.5076 17.1353 17.5056 17.14 17.5037C17.1448 17.5017 17.1509 17.4982 17.1581 17.4909L18.4707 18.8035ZM17.1174 19.3638C16.0928 19.3638 15.2706 18.5596 15.2114 17.5632L17.0643 17.4531C17.0653 17.4689 17.0717 17.4827 17.0832 17.4936C17.0887 17.4989 17.0944 17.5023 17.0993 17.5044C17.1036 17.5061 17.1091 17.5076 17.1174 17.5076V19.3638ZM16.5792 18.3246C16.2794 18.4866 15.9239 18.58 15.5442 18.5557L15.6632 16.7033C15.6633 16.7033 15.6652 16.7035 15.6701 16.7023C15.6754 16.7011 15.6844 16.6982 15.6966 16.6916L16.5792 18.3246ZM15.543 18.5556C14.5125 18.488 13.7571 17.6116 13.7571 16.616H15.6133C15.6133 16.6474 15.6247 16.6715 15.639 16.6873C15.6529 16.7026 15.6624 16.7032 15.6645 16.7034L15.543 18.5556ZM13.7571 16.616V12.1844H15.6133V16.616H13.7571ZM15.489 12.6483L14.9844 13.5226L13.3768 12.5946L13.8814 11.7204L15.489 12.6483ZM14.9852 13.5211C14.6266 14.145 13.9591 14.5287 13.2412 14.5287V12.6725C13.2981 12.6725 13.3502 12.6409 13.3759 12.5961L14.9852 13.5211ZM13.2412 14.5287C12.8903 14.5287 12.5448 14.4366 12.2395 14.2617L13.1623 12.6512C13.1873 12.6655 13.2147 12.6725 13.2412 12.6725V14.5287ZM12.2354 14.2593C11.8187 14.0178 11.5154 13.6247 11.3903 13.1564L13.1836 12.6773C13.1828 12.6741 13.1805 12.6685 13.176 12.6627C13.1715 12.6569 13.1674 12.6541 13.1664 12.6535L12.2354 14.2593ZM11.3906 13.1575C11.265 12.6896 11.3308 12.1962 11.573 11.7778L13.1794 12.7079C13.1807 12.7056 13.183 12.7003 13.184 12.6928C13.185 12.6853 13.1841 12.6793 13.1833 12.6763L11.3906 13.1575ZM12.3762 11.3148C11.9209 11.4341 11.5802 11.7657 11.5776 11.77C11.5768 11.7714 11.5755 11.7735 11.5751 11.7742C11.5749 11.7746 11.5745 11.7753 11.5743 11.7755C11.5743 11.7757 11.5741 11.776 11.574 11.776C11.5739 11.7763 11.574 11.7762 11.5743 11.7756C11.5749 11.7745 11.576 11.7727 11.5775 11.77C11.5806 11.7647 11.5852 11.7568 11.5912 11.7463C11.6033 11.7254 11.6211 11.6947 11.6437 11.6554C11.6891 11.577 11.7539 11.4646 11.8321 11.3293C11.9885 11.0585 12.198 10.6957 12.4106 10.3274C12.8366 9.58953 13.2734 8.83288 13.3229 8.74662L14.9331 9.67007C14.8818 9.75942 14.4428 10.52 14.0181 11.2555C13.8054 11.6239 13.5959 11.9868 13.4395 12.2575C13.3613 12.3929 13.2964 12.5053 13.251 12.5839C13.2283 12.6232 13.2105 12.654 13.1983 12.6751C13.1923 12.6856 13.1876 12.6937 13.1843 12.6993C13.1828 12.702 13.1814 12.7043 13.1805 12.706C13.18 12.7067 13.1795 12.7077 13.1789 12.7086C13.1787 12.709 13.1781 12.71 13.1774 12.7112C13.177 12.712 13.1757 12.7142 13.1748 12.7157C13.1722 12.72 12.8314 13.0516 12.3762 13.1709V11.3148ZM13.2827 8.82508C13.2929 8.80255 13.3253 8.72991 13.3551 8.66296L15.0511 9.41721C15.0228 9.48081 14.987 9.56133 14.9732 9.5916L13.2827 8.82508ZM13.3551 8.66295C13.368 8.63395 13.3822 8.59689 13.4026 8.5394L15.1521 9.15966C15.1269 9.23074 15.0936 9.32159 15.0511 9.41723L13.3551 8.66295ZM13.4025 8.53965C14.0311 6.76504 15.6133 5.64277 17.4947 5.64277V7.49896C16.4027 7.49896 15.5193 8.1229 15.1522 9.1594L13.4025 8.53965ZM17.4947 5.64277C20.0073 5.64277 21.9242 7.83371 21.9242 10.3676H20.068C20.068 8.71445 18.8435 7.49896 17.4947 7.49896V5.64277ZM21.9242 10.3676L21.9244 15.7791L20.0682 15.7792L20.068 10.3677L21.9242 10.3676ZM21.9244 15.7791C21.9244 16.2881 21.7247 16.7714 21.365 17.1318L20.0513 15.8205C20.0586 15.8131 20.0622 15.8069 20.0642 15.802C20.0662 15.7971 20.0682 15.79 20.0682 15.7791H21.9244ZM21.3644 17.1324C21.0042 17.4927 20.5205 17.6927 20.0111 17.6927V15.8365C20.022 15.8365 20.0291 15.8345 20.0338 15.8325C20.0386 15.8306 20.0447 15.8271 20.0519 15.8199L21.3644 17.1324ZM19.5246 15.9742L19.5247 15.9741L20.4975 17.555L20.4975 17.555L19.5246 15.9742ZM17.4948 8.0225C16.6124 8.0225 15.9432 8.49454 15.6457 9.33454L13.896 8.7147C14.4548 7.13745 15.8221 6.16632 17.4948 6.16632V8.0225ZM15.6449 9.33654C15.6157 9.41863 15.5776 9.52232 15.5295 9.63035L13.8338 8.87544C13.8522 8.83391 13.8713 8.7841 13.8967 8.7127L15.6449 9.33654ZM15.5293 9.63084C15.4868 9.72616 15.4512 9.80666 15.4239 9.86119C15.407 9.89503 15.3796 9.94719 15.3399 10.005C15.2997 10.0635 15.2599 10.1076 15.2567 10.1113L13.8589 8.89003C13.8611 8.88754 13.8604 8.88835 13.8593 8.88963C13.8579 8.89127 13.8543 8.89548 13.8495 8.90125C13.8446 8.90722 13.8384 8.91494 13.8315 8.92412C13.8245 8.93338 13.8173 8.94323 13.8102 8.95362C13.7956 8.97478 13.7845 8.99331 13.7765 9.00733C13.7691 9.02041 13.7645 9.02946 13.7635 9.0315C13.7624 9.03361 13.7631 9.03237 13.7662 9.02562C13.7693 9.01908 13.7736 9.00965 13.7798 8.99594C13.786 8.98234 13.7934 8.96592 13.8024 8.94563C13.8115 8.92537 13.8218 8.90216 13.834 8.87495L15.5293 9.63084ZM13.9512 10.2031L13.9476 10.2L15.1608 8.79517L15.1644 8.79828L13.9512 10.2031ZM15.3743 9.93217C15.229 10.2063 14.8143 10.924 13.6332 12.969L12.0258 12.0407C13.2236 9.96691 13.6098 9.2976 13.7342 9.06297L15.3743 9.93217ZM13.6328 12.9697C13.7071 12.8414 13.7278 12.6865 13.6896 12.5428L11.8956 13.0196C11.8076 12.6883 11.8542 12.3373 12.0262 12.04L13.6328 12.9697ZM13.6888 12.5399C13.6506 12.3981 13.5567 12.274 13.4262 12.1986L12.4982 13.8062C12.2 13.6341 11.9851 13.3519 11.8964 13.0225L13.6888 12.5399ZM13.4244 12.1976C13.3188 12.137 13.216 12.1374 13.1451 12.1565C13.0744 12.1755 12.9838 12.227 12.9218 12.3351L14.5316 13.2591C14.1272 13.9638 13.2028 14.2109 12.4999 13.8072L13.4244 12.1976ZM12.923 12.3329L13.9167 10.6126L15.524 11.541L14.5304 13.2613L12.923 12.3329ZM13.9172 10.6116C14.1853 10.1488 14.7325 9.91721 15.2573 10.0593L14.7724 11.851C15.067 11.9307 15.3741 11.7998 15.5234 11.542L13.9172 10.6116ZM15.255 10.0586C15.7757 10.1981 16.137 10.67 16.137 11.208H14.2808C14.2808 11.5092 14.483 11.7734 14.7747 11.8516L15.255 10.0586ZM16.137 11.208V16.6161H14.2808V11.208H16.137ZM16.137 16.6161C16.137 16.5104 16.0978 16.4142 16.0335 16.3407C15.9693 16.2672 15.8559 16.1914 15.699 16.181L15.5771 18.0332C14.7958 17.9818 14.2808 17.3012 14.2808 16.6161H16.137ZM15.6871 16.1803C15.5774 16.1745 15.4435 16.2147 15.3417 16.3163L16.653 17.63C16.36 17.9225 15.9716 18.0541 15.589 18.0339L15.6871 16.1803ZM15.3411 16.3169C15.253 16.4049 15.2041 16.5256 15.2041 16.6466H17.0603C17.0603 17.0152 16.9155 17.3675 16.6536 17.6294L15.3411 16.3169ZM15.2041 16.6466V13.1096H17.0603V16.6466H15.2041ZM15.2041 13.1096C15.2041 12.4524 15.7368 11.9196 16.3941 11.9196V13.7758C16.762 13.7758 17.0603 13.4776 17.0603 13.1096H15.2041ZM16.3941 11.9196C17.0509 11.9196 17.584 12.4519 17.584 13.1096H15.7279C15.7279 13.4778 16.0265 13.7758 16.3941 13.7758V11.9196ZM17.584 13.1097L17.5839 17.4506L15.7277 17.4505L15.7279 13.1096L17.584 13.1097ZM17.5839 17.4506C17.5839 17.1925 17.3755 16.9841 17.1174 16.9841V18.8403C16.3503 18.8403 15.7277 18.2177 15.7277 17.4506H17.5839ZM17.1174 16.9841C16.9966 16.9841 16.8765 17.0328 16.7886 17.1205L18.0999 18.4343C17.8378 18.6959 17.4855 18.8403 17.1174 18.8403V16.9841ZM16.7874 17.1218C16.6996 17.2097 16.651 17.3298 16.651 17.4506H18.5072C18.5072 17.8187 18.3627 18.171 18.1011 18.4331L16.7874 17.1218ZM16.651 17.4506V13.1096H18.5072V17.4506H16.651ZM16.651 13.1096C16.651 12.4528 17.1832 11.9196 17.841 11.9196V13.7758C18.2091 13.7758 18.5072 13.4772 18.5072 13.1096H16.651ZM17.841 11.9196C18.4978 11.9196 19.031 12.4519 19.031 13.1096H17.1748C17.1748 13.4778 17.4734 13.7758 17.841 13.7758V11.9196ZM19.031 13.1097L19.0308 16.606L17.1746 16.6059L17.1748 13.1096L19.031 13.1097ZM19.0308 16.6059V16.6466H17.1746V16.6059H19.0308ZM19.0308 16.6466C19.0308 16.3879 18.8219 16.18 18.5645 16.18V18.0362C17.7977 18.0362 17.1746 17.414 17.1746 16.6466H19.0308ZM18.5645 16.18C18.4412 16.18 18.3218 16.2301 18.2363 16.3153L19.5464 17.6303C19.2857 17.8899 18.9348 18.0362 18.5645 18.0362V16.18ZM18.2357 16.3159C18.1469 16.4045 18.098 16.5256 18.098 16.6464H19.9542C19.9542 17.0149 19.8096 17.3675 19.547 17.6297L18.2357 16.3159ZM18.098 16.6464V13.1094H19.9542V16.6464H18.098ZM18.098 13.1094C18.098 12.4526 18.6303 11.9195 19.288 11.9195V13.7756C19.6562 13.7756 19.9542 13.477 19.9542 13.1094H18.098ZM19.288 11.9195C19.9449 11.9195 20.478 12.4517 20.478 13.1094H18.6218C18.6218 13.4776 18.9205 13.7756 19.288 13.7756V11.9195ZM20.478 13.1096L20.4777 15.7794L18.6215 15.7791L18.6218 13.1093L20.478 13.1096ZM20.4777 15.7793C20.4777 15.5218 20.2697 15.313 20.0111 15.313V17.1692C19.2437 17.1692 18.6215 16.5461 18.6215 15.7793H20.4777ZM20.0111 15.313C19.8893 15.313 19.7692 15.3623 19.6819 15.4494L20.9932 16.7631C20.7321 17.0238 20.3804 17.1692 20.0111 17.1692V15.313ZM19.6813 15.45C19.5929 15.5384 19.5444 15.659 19.5444 15.7793H21.4006C21.4006 16.1468 21.2567 16.4997 20.9938 16.7625L19.6813 15.45ZM19.5444 15.7792L19.5446 10.3677L21.4008 10.3678L21.4006 15.7793L19.5444 15.7792ZM19.5446 10.3678C19.5446 8.99103 18.5436 8.02256 17.4947 8.02256V6.16637C19.7301 6.16637 21.4008 8.13505 21.4008 10.3678H19.5446ZM16.6024 6.8395L16.6024 6.83944L18.3871 7.34938L18.3871 7.34943L16.6024 6.8395Z" fill="#4CAF4F" mask="url(#path-1-inside-1_211_2338)"/>
<path d="M8.63086 18.5526L8.5791 18.5253C8.56683 18.5474 8.53238 18.6093 8.48145 18.701C8.49954 18.7101 8.51786 18.7176 8.53613 18.7245C8.56728 18.6684 8.59851 18.6109 8.63086 18.5526Z" fill="#4CAF4F" stroke="#4CAF4F" stroke-width="0.928093"/>
<mask id="path-4-inside-2_211_2338" fill="white">
<path d="M27.8812 25.8226C27.3979 26.6286 26.6031 27.1803 25.6429 27.3764C24.6912 27.5704 23.6904 27.3915 22.8242 26.8721L18.1835 24.0882C17.9577 23.9527 17.7979 23.7376 17.734 23.482C17.6705 23.227 17.7102 22.9622 17.8455 22.7365C17.9299 22.5955 18.0483 22.4843 18.1856 22.4022L18.1843 22.4013C17.9585 22.2659 17.7988 22.0507 17.7351 21.7955C17.6712 21.5404 17.7109 21.2753 17.8463 21.0494C17.9336 20.9043 18.0531 20.7908 18.1896 20.7102C17.9915 20.574 17.8488 20.376 17.7901 20.1412C17.7261 19.8858 17.7658 19.621 17.9013 19.3953C18.0366 19.1695 18.2519 19.0099 18.5071 18.9462C18.5868 18.9262 18.6676 18.9163 18.7476 18.9163C18.9047 18.9165 19.0589 18.9563 19.2006 19.0305C19.2093 18.8469 19.2639 18.6667 19.3711 18.5121C19.6652 18.0878 20.2542 17.9704 20.7131 18.2457L24.5133 20.5252L24.0235 19.6429C23.8355 19.3061 23.8424 18.8905 24.0417 18.5583C24.1387 18.3966 24.2775 18.2623 24.4433 18.1693C24.5796 18.0939 24.7272 18.0581 24.8728 18.0581C25.1855 18.0583 25.4892 18.2233 25.6509 18.5153C26.2144 19.5306 27.2777 21.4454 27.3525 21.5791C27.3684 21.6022 27.4164 21.6711 27.4576 21.7296C27.4968 21.7852 27.5391 21.8383 27.5829 21.8911C28.5318 23.0414 28.6462 24.5476 27.8812 25.8226L27.8812 25.8226ZM27.1789 22.2249C27.1267 22.1618 27.0755 22.0973 27.029 22.0309C26.8873 21.8298 26.8837 21.8246 26.873 21.7719C26.7074 21.4979 26.3033 20.7705 25.1926 18.7694C25.0952 18.5938 24.8738 18.5296 24.6975 18.627C24.6107 18.6756 24.541 18.7433 24.4902 18.8281C24.3872 18.9998 24.3833 19.2143 24.4805 19.3885L25.4445 21.1253C25.502 21.229 25.4829 21.3582 25.3977 21.4405C25.3128 21.523 25.1829 21.5374 25.0809 21.4768L20.4436 18.6948C20.225 18.5637 19.9368 18.6151 19.8017 18.8102C19.724 18.9224 19.6992 19.0562 19.7317 19.1869C19.7615 19.3063 19.8365 19.407 19.9426 19.4706C19.9429 19.4708 19.9431 19.4711 19.9434 19.4713L22.9755 21.2903C23.0994 21.3647 23.1396 21.5254 23.0652 21.6496C22.9907 21.7734 22.8302 21.8139 22.7059 21.7393L18.9834 19.5062C18.8778 19.4429 18.7535 19.4242 18.6341 19.4542C18.5144 19.4841 18.4137 19.5589 18.3502 19.665C18.2866 19.7707 18.2682 19.8949 18.2977 20.0143C18.3276 20.1337 18.4025 20.2345 18.5085 20.2981L19.2328 20.7326L22.2308 22.5312C22.3547 22.6057 22.3949 22.7664 22.3205 22.8906C22.246 23.0144 22.0855 23.0547 21.9612 22.9803L18.9285 21.1608C18.7104 21.0296 18.4263 21.1007 18.2951 21.3192C18.2315 21.4251 18.2131 21.5493 18.2426 21.6686C18.2725 21.788 18.3474 21.8887 18.4535 21.9525L19.1971 22.3986L21.4862 23.772C21.6102 23.8465 21.6504 24.0072 21.5759 24.1313C21.5015 24.2551 21.3409 24.2958 21.2166 24.221L18.9275 22.8476C18.8219 22.7843 18.6981 22.7656 18.578 22.7956C18.4586 22.8254 18.3576 22.9002 18.2941 23.006C18.2307 23.1119 18.2121 23.2362 18.2417 23.3555C18.2715 23.4748 18.3465 23.5755 18.4526 23.6393L23.0933 26.4232C23.8463 26.8751 24.7148 27.0315 25.5377 26.8636C26.3521 26.6973 27.0248 26.232 27.4319 25.5534C28.0896 24.4576 27.995 23.2133 27.1791 22.2249L27.1789 22.2249Z"/>
</mask>
<path d="M27.8812 25.8226C27.3979 26.6286 26.6031 27.1803 25.6429 27.3764C24.6912 27.5704 23.6904 27.3915 22.8242 26.8721L18.1835 24.0882C17.9577 23.9527 17.7979 23.7376 17.734 23.482C17.6705 23.227 17.7102 22.9622 17.8455 22.7365C17.9299 22.5955 18.0483 22.4843 18.1856 22.4022L18.1843 22.4013C17.9585 22.2659 17.7988 22.0507 17.7351 21.7955C17.6712 21.5404 17.7109 21.2753 17.8463 21.0494C17.9336 20.9043 18.0531 20.7908 18.1896 20.7102C17.9915 20.574 17.8488 20.376 17.7901 20.1412C17.7261 19.8858 17.7658 19.621 17.9013 19.3953C18.0366 19.1695 18.2519 19.0099 18.5071 18.9462C18.5868 18.9262 18.6676 18.9163 18.7476 18.9163C18.9047 18.9165 19.0589 18.9563 19.2006 19.0305C19.2093 18.8469 19.2639 18.6667 19.3711 18.5121C19.6652 18.0878 20.2542 17.9704 20.7131 18.2457L24.5133 20.5252L24.0235 19.6429C23.8355 19.3061 23.8424 18.8905 24.0417 18.5583C24.1387 18.3966 24.2775 18.2623 24.4433 18.1693C24.5796 18.0939 24.7272 18.0581 24.8728 18.0581C25.1855 18.0583 25.4892 18.2233 25.6509 18.5153C26.2144 19.5306 27.2777 21.4454 27.3525 21.5791C27.3684 21.6022 27.4164 21.6711 27.4576 21.7296C27.4968 21.7852 27.5391 21.8383 27.5829 21.8911C28.5318 23.0414 28.6462 24.5476 27.8812 25.8226L27.8812 25.8226ZM27.1789 22.2249C27.1267 22.1618 27.0755 22.0973 27.029 22.0309C26.8873 21.8298 26.8837 21.8246 26.873 21.7719C26.7074 21.4979 26.3033 20.7705 25.1926 18.7694C25.0952 18.5938 24.8738 18.5296 24.6975 18.627C24.6107 18.6756 24.541 18.7433 24.4902 18.8281C24.3872 18.9998 24.3833 19.2143 24.4805 19.3885L25.4445 21.1253C25.502 21.229 25.4829 21.3582 25.3977 21.4405C25.3128 21.523 25.1829 21.5374 25.0809 21.4768L20.4436 18.6948C20.225 18.5637 19.9368 18.6151 19.8017 18.8102C19.724 18.9224 19.6992 19.0562 19.7317 19.1869C19.7615 19.3063 19.8365 19.407 19.9426 19.4706C19.9429 19.4708 19.9431 19.4711 19.9434 19.4713L22.9755 21.2903C23.0994 21.3647 23.1396 21.5254 23.0652 21.6496C22.9907 21.7734 22.8302 21.8139 22.7059 21.7393L18.9834 19.5062C18.8778 19.4429 18.7535 19.4242 18.6341 19.4542C18.5144 19.4841 18.4137 19.5589 18.3502 19.665C18.2866 19.7707 18.2682 19.8949 18.2977 20.0143C18.3276 20.1337 18.4025 20.2345 18.5085 20.2981L19.2328 20.7326L22.2308 22.5312C22.3547 22.6057 22.3949 22.7664 22.3205 22.8906C22.246 23.0144 22.0855 23.0547 21.9612 22.9803L18.9285 21.1608C18.7104 21.0296 18.4263 21.1007 18.2951 21.3192C18.2315 21.4251 18.2131 21.5493 18.2426 21.6686C18.2725 21.788 18.3474 21.8887 18.4535 21.9525L19.1971 22.3986L21.4862 23.772C21.6102 23.8465 21.6504 24.0072 21.5759 24.1313C21.5015 24.2551 21.3409 24.2958 21.2166 24.221L18.9275 22.8476C18.8219 22.7843 18.6981 22.7656 18.578 22.7956C18.4586 22.8254 18.3576 22.9002 18.2941 23.006C18.2307 23.1119 18.2121 23.2362 18.2417 23.3555C18.2715 23.4748 18.3465 23.5755 18.4526 23.6393L23.0933 26.4232C23.8463 26.8751 24.7148 27.0315 25.5377 26.8636C26.3521 26.6973 27.0248 26.232 27.4319 25.5534C28.0896 24.4576 27.995 23.2133 27.1791 22.2249L27.1789 22.2249Z" fill="#4CAF4F"/>
<path d="M27.8812 25.8226L27.5817 24.9441L29.9804 24.1264L28.6772 26.2998L27.8812 25.8226ZM25.6429 27.3764L25.8286 28.2857L25.8283 28.2858L25.6429 27.3764ZM22.8242 26.8721L22.3469 27.6681L22.3467 27.668L22.8242 26.8721ZM18.1835 24.0882L18.6609 23.2923L18.6609 23.2923L18.1835 24.0882ZM17.734 23.482L16.8337 23.7074L16.8334 23.7062L17.734 23.482ZM17.8455 22.7365L18.6417 23.2133L18.6415 23.2138L17.8455 22.7365ZM18.1856 22.4022L18.6775 21.6151L19.9641 22.4193L18.6623 23.1985L18.1856 22.4022ZM18.1843 22.4013L18.6617 21.6055L18.669 21.6098L18.6762 21.6143L18.1843 22.4013ZM17.7351 21.7955L18.6354 21.5699L18.6357 21.571L17.7351 21.7955ZM17.8463 21.0494L17.0503 20.5722L17.0509 20.5712L17.8463 21.0494ZM18.1896 20.7102L18.7156 19.9456L19.9142 20.7702L18.6612 21.5095L18.1896 20.7102ZM17.7901 20.1412L18.6904 19.9157L18.6905 19.9161L17.7901 20.1412ZM17.9013 19.3953L18.6974 19.8723L18.697 19.873L17.9013 19.3953ZM18.5071 18.9462L18.733 19.8463L18.7321 19.8466L18.5071 18.9462ZM18.7476 18.9163V17.9882L18.7486 17.9882L18.7476 18.9163ZM19.2006 19.0305L20.1276 19.0744L20.0588 20.5269L18.7703 19.8528L19.2006 19.0305ZM19.3711 18.5121L20.1339 19.0408L20.1338 19.0409L19.3711 18.5121ZM20.7131 18.2457L20.2357 19.0416L20.2356 19.0416L20.7131 18.2457ZM24.5133 20.5252L25.3247 20.0747L27.0058 23.1025L24.0359 21.3211L24.5133 20.5252ZM24.0235 19.6429L24.8339 19.1907L24.8349 19.1924L24.0235 19.6429ZM24.0417 18.5583L23.2457 18.081L23.246 18.0806L24.0417 18.5583ZM24.4433 18.1693L23.9893 17.3598L23.9938 17.3573L24.4433 18.1693ZM24.8728 18.0581V17.13L24.8732 17.13L24.8728 18.0581ZM25.6509 18.5153L24.8394 18.9657L24.8389 18.9648L25.6509 18.5153ZM27.3525 21.5791L26.5878 22.1051L26.5635 22.0697L26.5425 22.0321L27.3525 21.5791ZM27.4576 21.7296L26.6991 22.2644L26.6984 22.2634L27.4576 21.7296ZM27.5829 21.8911L28.2973 21.2988L28.2988 21.3005L27.5829 21.8911ZM27.8812 25.8226L28.1807 26.701L25.7808 27.5192L27.0854 25.345L27.8812 25.8226ZM27.1789 22.2249L27.2708 23.1484L26.7784 23.1974L26.4633 22.8159L27.1789 22.2249ZM27.029 22.0309L27.7876 21.4963L27.7888 21.498L27.029 22.0309ZM26.873 21.7719L27.6673 21.2919L27.7507 21.4298L27.7826 21.5878L26.873 21.7719ZM25.1926 18.7694L24.3811 19.2198L24.381 19.2195L25.1926 18.7694ZM24.6975 18.627L24.2443 17.8171L24.2486 17.8147L24.6975 18.627ZM24.4902 18.8281L25.2862 19.3054L25.2861 19.3055L24.4902 18.8281ZM24.4805 19.3885L25.2909 18.936L25.292 18.9381L24.4805 19.3885ZM25.4445 21.1253L24.6331 21.5759L24.633 21.5757L25.4445 21.1253ZM25.3977 21.4405L24.7512 20.7747L24.7525 20.7734L25.3977 21.4405ZM25.0809 21.4768L24.6064 22.2744L24.6035 22.2726L25.0809 21.4768ZM20.4436 18.6948L20.9207 17.8987L20.921 17.8989L20.4436 18.6948ZM19.8017 18.8102L20.5647 19.3386L20.5645 19.3389L19.8017 18.8102ZM19.7317 19.1869L18.8313 19.412L18.831 19.4107L19.7317 19.1869ZM19.9426 19.4706L19.5274 20.3007L19.4957 20.2848L19.4653 20.2666L19.9426 19.4706ZM19.9434 19.4713L20.3585 18.6412L20.3903 18.6571L20.4208 18.6754L19.9434 19.4713ZM22.9755 21.2903L23.4529 20.4944L23.4533 20.4946L22.9755 21.2903ZM23.0652 21.6496L23.8611 22.1269L23.8605 22.1279L23.0652 21.6496ZM22.7059 21.7393L23.1833 20.9434L23.1835 20.9436L22.7059 21.7393ZM18.9834 19.5062L19.4605 18.7102L19.4608 18.7103L18.9834 19.5062ZM18.6341 19.4542L18.8603 20.3543L18.8586 20.3548L18.6341 19.4542ZM18.3502 19.665L19.1467 20.1414L19.1455 20.1434L18.3502 19.665ZM18.2977 20.0143L17.3974 20.2394L17.3968 20.237L18.2977 20.0143ZM18.5085 20.2981L18.0311 21.0941L18.0306 21.0937L18.5085 20.2981ZM19.2328 20.7326L19.7102 19.9366L19.7103 19.9367L19.2328 20.7326ZM22.2308 22.5312L22.7083 21.7354L22.7086 21.7356L22.2308 22.5312ZM22.3205 22.8906L23.1164 23.3679L23.1158 23.3688L22.3205 22.8906ZM21.9612 22.9803L21.4843 23.7764L21.4837 23.7761L21.9612 22.9803ZM18.9285 21.1608L18.451 21.9566L18.4501 21.9561L18.9285 21.1608ZM18.2951 21.3192L19.0907 21.797L19.0907 21.797L18.2951 21.3192ZM18.2426 21.6686L17.3423 21.8937L17.3417 21.8914L18.2426 21.6686ZM18.4535 21.9525L17.9761 22.7484L17.9753 22.7479L18.4535 21.9525ZM19.1971 22.3986L19.6745 21.6027L19.6746 21.6027L19.1971 22.3986ZM21.4862 23.772L21.9637 22.9762L21.964 22.9764L21.4862 23.772ZM21.5759 24.1313L22.3719 24.6087L22.3713 24.6096L21.5759 24.1313ZM21.2166 24.221L21.6941 23.4252L21.6951 23.4258L21.2166 24.221ZM18.9275 22.8476L19.4046 22.0515L19.405 22.0517L18.9275 22.8476ZM18.578 22.7956L18.3529 21.8952L18.3529 21.8952L18.578 22.7956ZM18.2941 23.006L17.498 22.529L17.4983 22.5285L18.2941 23.006ZM18.2417 23.3555L17.3413 23.5806L17.3408 23.5785L18.2417 23.3555ZM18.4526 23.6393L17.9751 24.4352L17.9743 24.4347L18.4526 23.6393ZM23.0933 26.4232L23.5707 25.6274L23.5707 25.6274L23.0933 26.4232ZM25.5377 26.8636L25.7234 27.7729L25.7233 27.7729L25.5377 26.8636ZM27.4319 25.5534L26.6359 25.076L26.6361 25.0758L27.4319 25.5534ZM27.1791 22.2249L27.0872 21.3013L27.5798 21.2523L27.8949 21.6341L27.1791 22.2249ZM28.6772 26.2998C28.0537 27.3397 27.0314 28.04 25.8286 28.2857L25.4571 26.4671C26.1748 26.3205 26.7422 25.9174 27.0852 25.3453L28.6772 26.2998ZM25.8283 28.2858C24.6397 28.5281 23.4035 28.3016 22.3469 27.6681L23.3014 26.0761C23.9773 26.4814 24.7428 26.6127 25.4575 26.467L25.8283 28.2858ZM22.3467 27.668L17.706 24.8841L18.6609 23.2923L23.3016 26.0762L22.3467 27.668ZM17.7061 24.8841C17.2696 24.6223 16.9575 24.2021 16.8337 23.7074L18.6343 23.2567C18.6368 23.2668 18.6403 23.273 18.6434 23.2772C18.6466 23.2814 18.6517 23.2868 18.6609 23.2923L17.7061 24.8841ZM16.8334 23.7062C16.7104 23.2122 16.7882 22.6952 17.0495 22.2593L18.6415 23.2138C18.6359 23.223 18.6339 23.2303 18.6331 23.2356C18.6323 23.241 18.6322 23.2481 18.6346 23.2579L16.8334 23.7062ZM17.0492 22.2597C17.2213 21.9723 17.4565 21.7569 17.709 21.6058L18.6623 23.1985C18.651 23.2053 18.645 23.2105 18.6425 23.2129C18.6404 23.215 18.6407 23.2151 18.6417 23.2133L17.0492 22.2597ZM17.6937 23.1892L17.6924 23.1884L18.6762 21.6143L18.6775 21.6151L17.6937 23.1892ZM17.7069 23.1972C17.2706 22.9355 16.9581 22.5153 16.8346 22.02L18.6357 21.571C18.638 21.5805 18.6413 21.5864 18.6443 21.5904C18.6474 21.5945 18.6525 21.5999 18.6617 21.6055L17.7069 23.1972ZM16.8349 22.0212C16.7108 21.526 16.7889 21.0083 17.0503 20.5722L18.6423 21.5266C18.6367 21.5361 18.6346 21.5433 18.6339 21.5485C18.6331 21.5536 18.633 21.5604 18.6354 21.5699L16.8349 22.0212ZM17.0509 20.5712C17.2222 20.2862 17.4563 20.0653 17.7179 19.911L18.6612 21.5095C18.6552 21.5131 18.6511 21.5165 18.6484 21.5191C18.6459 21.5216 18.6438 21.5242 18.6418 21.5275L17.0509 20.5712ZM17.6636 21.4749C17.2887 21.217 17.006 20.8316 16.8897 20.3663L18.6905 19.9161C18.6916 19.9205 18.693 19.9236 18.6954 19.927C18.698 19.9307 18.7038 19.9375 18.7156 19.9456L17.6636 21.4749ZM16.8898 20.3667C16.7658 19.8716 16.8437 19.3539 17.1055 18.9177L18.697 19.873C18.6915 19.8822 18.6895 19.8892 18.6888 19.8941C18.6881 19.8991 18.6879 19.906 18.6904 19.9157L16.8898 20.3667ZM17.1051 18.9183C17.3671 18.4811 17.7879 18.1693 18.282 18.0458L18.7321 19.8466C18.7222 19.849 18.716 19.8525 18.7119 19.8555C18.7078 19.8586 18.7027 19.8635 18.6974 19.8723L17.1051 18.9183ZM18.2811 18.046C18.4348 18.0074 18.5916 17.9882 18.7476 17.9882V19.8444C18.7436 19.8444 18.7387 19.8449 18.733 19.8463L18.2811 18.046ZM18.7486 17.9882C19.0639 17.9886 19.3645 18.0688 19.6308 18.2081L18.7703 19.8528C18.7615 19.8482 18.7552 19.8461 18.7517 19.8453C18.7483 19.8444 18.7468 19.8444 18.7467 19.8444L18.7486 17.9882ZM18.2735 18.9865C18.2895 18.649 18.3913 18.2964 18.6085 17.9832L20.1338 19.0409C20.1365 19.0371 20.129 19.0449 20.1276 19.0744L18.2735 18.9865ZM18.6083 17.9834C19.1962 17.1352 20.3359 16.9371 21.1906 17.4499L20.2356 19.0416C20.2085 19.0253 20.182 19.0227 20.1612 19.0269C20.1409 19.0309 20.1353 19.0388 20.1339 19.0408L18.6083 17.9834ZM21.1905 17.4498L24.9907 19.7293L24.0359 21.3211L20.2357 19.0416L21.1905 17.4498ZM23.7019 20.9757L23.212 20.0934L24.8349 19.1924L25.3247 20.0747L23.7019 20.9757ZM23.213 20.0951C22.8624 19.4668 22.8764 18.6968 23.2457 18.081L24.8376 19.0356C24.8084 19.0843 24.8086 19.1454 24.8339 19.1907L23.213 20.0951ZM23.246 18.0806C23.427 17.7791 23.6841 17.531 23.9893 17.3598L24.8973 18.9788C24.8709 18.9936 24.8505 19.0141 24.8374 19.036L23.246 18.0806ZM23.9938 17.3573C24.2715 17.2036 24.5744 17.13 24.8728 17.13V18.9862C24.876 18.9862 24.8796 18.9858 24.8835 18.9848C24.8876 18.9838 24.8908 18.9824 24.8928 18.9813L23.9938 17.3573ZM24.8732 17.13C25.5075 17.1304 26.1303 17.465 26.4629 18.0659L24.8389 18.9648C24.8404 18.9674 24.8428 18.9709 24.8462 18.9744C24.8495 18.9776 24.8528 18.9801 24.8558 18.9818C24.861 18.9848 24.8663 18.9862 24.8723 18.9862L24.8732 17.13ZM26.4624 18.065C27.0265 19.0815 28.0887 20.9941 28.1625 21.126L26.5425 22.0321C26.4667 21.8967 25.4022 19.9798 24.8394 18.9657L26.4624 18.065ZM28.1171 21.053C28.1302 21.0721 28.176 21.1378 28.2168 21.1958L26.6984 22.2634C26.6568 22.2043 26.6065 22.1323 26.5878 22.1051L28.1171 21.053ZM28.2161 21.1948C28.2353 21.2221 28.2604 21.2542 28.2973 21.2988L26.8684 22.4835C26.8178 22.4225 26.7583 22.3484 26.6991 22.2644L28.2161 21.1948ZM28.2988 21.3005C29.4967 22.7527 29.6451 24.6867 28.677 26.3001L27.0854 25.345C27.6473 24.4086 27.5668 23.3301 26.867 22.4818L28.2988 21.3005ZM27.5817 24.9441L27.5817 24.9441L28.1807 26.701L28.1807 26.701L27.5817 24.9441ZM26.4633 22.8159C26.4046 22.7449 26.3359 22.6591 26.2691 22.5638L27.7888 21.498C27.8151 21.5355 27.8488 21.5786 27.8944 21.6339L26.4633 22.8159ZM26.2703 22.5655C26.2119 22.4826 26.1491 22.3946 26.1074 22.3256C26.0795 22.2794 26.0422 22.212 26.0107 22.1262C25.98 22.0426 25.9664 21.9709 25.9634 21.9561L27.7826 21.5878C27.785 21.5993 27.7758 21.5481 27.7532 21.4865C27.7298 21.4227 27.7042 21.3791 27.6963 21.3659C27.6925 21.3597 27.6911 21.3577 27.694 21.3621C27.6968 21.3663 27.7017 21.3736 27.71 21.3857C27.7274 21.4108 27.7512 21.4445 27.7876 21.4963L26.2703 22.5655ZM26.0787 22.252C25.9014 21.9587 25.4841 21.2069 24.3811 19.2198L26.0041 18.319C27.1225 20.334 27.5133 21.0372 27.6673 21.2919L26.0787 22.252ZM24.381 19.2195C24.5312 19.4905 24.8734 19.5902 25.1464 19.4394L24.2486 17.8147C24.8742 17.469 25.6591 17.697 26.0042 18.3192L24.381 19.2195ZM25.1507 19.437C25.2052 19.4065 25.2537 19.3595 25.2862 19.3054L23.6942 18.3509C23.8284 18.1271 24.0163 17.9447 24.2443 17.8171L25.1507 19.437ZM25.2861 19.3055C25.3526 19.1947 25.3571 19.0546 25.2909 18.936L23.6702 19.8409C23.4095 19.374 23.4219 18.8049 23.6943 18.3507L25.2861 19.3055ZM25.292 18.9381L26.256 20.6749L24.633 21.5757L23.669 19.8389L25.292 18.9381ZM26.2558 20.6747C26.5171 21.1452 26.4304 21.7329 26.043 22.1076L24.7525 20.7734C24.5354 20.9834 24.4869 21.3127 24.6331 21.5759L26.2558 20.6747ZM26.0443 22.1063C25.6538 22.4855 25.0635 22.5463 24.6064 22.2744L25.5554 20.6791C25.3024 20.5286 24.9718 20.5605 24.7512 20.7747L26.0443 22.1063ZM24.6035 22.2726L19.9661 19.4906L20.921 17.8989L25.5584 20.6809L24.6035 22.2726ZM19.9664 19.4908C20.057 19.5451 20.1592 19.5609 20.2552 19.5437C20.3511 19.5265 20.4749 19.4683 20.5647 19.3386L19.0387 18.2818C19.4854 17.6367 20.3348 17.5475 20.9207 17.8987L19.9664 19.4908ZM20.5645 19.3389C20.637 19.2343 20.665 19.0945 20.6324 18.9632L18.831 19.4107C18.7334 19.018 18.811 18.6105 19.0389 18.2816L20.5645 19.3389ZM20.6321 18.9618C20.6017 18.8403 20.5231 18.7366 20.4199 18.6747L19.4653 20.2666C19.1498 20.0774 18.9214 19.7723 18.8313 19.412L20.6321 18.9618ZM20.3577 18.6406C20.4416 18.6825 20.5032 18.7292 20.5423 18.7623C20.5615 18.7785 20.5763 18.7924 20.5853 18.801C20.5899 18.8054 20.5935 18.809 20.5957 18.8112C20.5969 18.8123 20.5978 18.8132 20.5983 18.8138C20.5986 18.8141 20.5988 18.8143 20.599 18.8144C20.5991 18.8145 20.5991 18.8146 20.5992 18.8146C20.5992 18.8146 20.5992 18.8146 20.5992 18.8146C20.5992 18.8146 20.5992 18.8146 20.5992 18.8146C20.5992 18.8146 20.5992 18.8147 20.5992 18.8147C20.5995 18.815 20.5978 18.8133 20.5958 18.8113C20.5937 18.8091 20.59 18.8056 20.5855 18.8012C20.5766 18.7927 20.5618 18.7788 20.5427 18.7626C20.5038 18.7297 20.4422 18.6831 20.3585 18.6412L19.5283 20.3013C19.4444 20.2594 19.3827 20.2127 19.3437 20.1796C19.3245 20.1634 19.3096 20.1495 19.3007 20.1409C19.2961 20.1365 19.2924 20.1329 19.2902 20.1307C19.2891 20.1296 19.2882 20.1287 19.2876 20.1281C19.2874 20.1278 19.2871 20.1276 19.287 20.1275C19.2869 20.1274 19.2869 20.1273 19.2868 20.1273C19.2868 20.1273 19.2868 20.1273 19.2868 20.1273C19.2868 20.1273 19.2868 20.1272 19.2868 20.1272C19.2868 20.1272 19.2868 20.1272 19.2868 20.1272C19.2865 20.1269 19.2882 20.1286 19.2901 20.1306C19.2923 20.1328 19.2959 20.1363 19.3005 20.1407C19.3094 20.1492 19.3242 20.1631 19.3433 20.1793C19.3822 20.2122 19.4438 20.2588 19.5274 20.3007L20.3577 18.6406ZM20.4208 18.6754L23.4529 20.4944L22.498 22.0861L19.4659 20.2671L20.4208 18.6754ZM23.4533 20.4946C24.0167 20.833 24.199 21.5636 23.8611 22.1269L22.2693 21.1722C22.0803 21.4873 22.1822 21.8965 22.4977 22.0859L23.4533 20.4946ZM23.8605 22.1279C23.523 22.6891 22.7933 22.8742 22.2282 22.535L23.1835 20.9436C22.867 20.7536 22.4584 20.8576 22.2698 21.1713L23.8605 22.1279ZM22.2284 22.5352L18.506 20.3021L19.4608 18.7103L23.1833 20.9434L22.2284 22.5352ZM18.5063 20.3023C18.6105 20.3648 18.7391 20.3848 18.8603 20.3543L18.4078 18.5541C18.7679 18.4636 19.1451 18.5211 19.4605 18.7102L18.5063 20.3023ZM18.8586 20.3548C18.9791 20.3247 19.0839 20.2464 19.1467 20.1414L17.5537 19.1885C17.7435 18.8713 18.0496 18.6434 18.4096 18.5537L18.8586 20.3548ZM19.1455 20.1434C19.2092 20.0374 19.2278 19.9092 19.1987 19.7915L17.3968 20.237C17.3086 19.8805 17.3639 19.5041 17.5549 19.1866L19.1455 20.1434ZM19.1981 19.7892C19.1679 19.6683 19.0898 19.5647 18.9863 19.5025L18.0306 21.0937C17.7152 20.9043 17.4873 20.599 17.3974 20.2394L19.1981 19.7892ZM18.9858 19.5022L19.7102 19.9366L18.7555 21.5285L18.0311 21.0941L18.9858 19.5022ZM19.7103 19.9367L22.7083 21.7354L21.7533 23.3271L18.7553 21.5284L19.7103 19.9367ZM22.7086 21.7356C23.272 22.0739 23.4543 22.8045 23.1164 23.3679L21.5246 22.4132C21.3356 22.7283 21.4375 23.1375 21.753 23.3269L22.7086 21.7356ZM23.1158 23.3688C22.7778 23.931 22.0481 24.1142 21.4843 23.7764L22.4381 22.1841C22.1228 21.9952 21.7142 22.0977 21.5251 22.4123L23.1158 23.3688ZM21.4837 23.7761L18.451 21.9566L19.4059 20.3649L22.4386 22.1844L21.4837 23.7761ZM18.4501 21.9561C18.673 22.0901 18.9588 22.0167 19.0907 21.797L17.4995 20.8413C17.8938 20.1848 18.7478 19.969 19.4068 20.3654L18.4501 21.9561ZM19.0907 21.797C19.154 21.6917 19.1728 21.5638 19.1436 21.4459L17.3417 21.8914C17.2535 21.5347 17.309 21.1585 17.4995 20.8413L19.0907 21.797ZM19.143 21.4435C19.1126 21.3219 19.0341 21.2186 18.9318 21.1571L17.9753 22.7479C17.6608 22.5588 17.4324 22.2542 17.3423 21.8937L19.143 21.4435ZM18.931 21.1566L19.6745 21.6027L18.7196 23.1944L17.9761 22.7484L18.931 21.1566ZM19.6746 21.6027L21.9637 22.9762L21.0088 24.5678L18.7196 23.1944L19.6746 21.6027ZM21.964 22.9764C22.5274 23.3147 22.7097 24.0453 22.3719 24.6087L20.78 23.654C20.591 23.969 20.693 24.3782 21.0084 24.5677L21.964 22.9764ZM22.3713 24.6096C22.0343 25.17 21.3045 25.357 20.7382 25.0163L21.6951 23.4258C21.3774 23.2346 20.9687 23.3403 20.7806 23.653L22.3713 24.6096ZM20.7391 25.0169L18.45 23.6434L19.405 22.0517L21.6941 23.4252L20.7391 25.0169ZM18.4503 23.6436C18.5549 23.7063 18.6835 23.7259 18.8031 23.696L18.3529 21.8952C18.7126 21.8053 19.0889 21.8623 19.4046 22.0515L18.4503 23.6436ZM18.8031 23.696C18.9225 23.6661 19.0268 23.5888 19.09 23.4835L17.4983 22.5285C17.6884 22.2117 17.9947 21.9848 18.3529 21.8952L18.8031 23.696ZM19.0903 23.4829C19.1527 23.3788 19.172 23.2515 19.1426 23.1324L17.3408 23.5785C17.2522 23.2209 17.3087 22.845 17.498 22.529L19.0903 23.4829ZM19.142 23.1304C19.1116 23.0087 19.0331 22.9055 18.9308 22.8439L17.9743 24.4347C17.6598 24.2456 17.4314 23.941 17.3413 23.5805L19.142 23.1304ZM18.93 22.8435L23.5707 25.6274L22.6158 27.2191L17.9751 24.4352L18.93 22.8435ZM23.5707 25.6274C24.1347 25.9658 24.7678 26.0734 25.3522 25.9542L25.7233 27.7729C24.6618 27.9895 23.5579 27.7843 22.6158 27.2191L23.5707 25.6274ZM25.3521 25.9542C25.926 25.837 26.3702 25.519 26.6359 25.076L28.2278 26.0308C27.6794 26.945 26.7782 27.5575 25.7234 27.7729L25.3521 25.9542ZM26.6361 25.0758C27.0907 24.3185 27.03 23.5021 26.4634 22.8157L27.8949 21.6341C28.96 22.9244 29.0886 24.5967 28.2276 26.0311L26.6361 25.0758ZM27.2711 23.1484L27.2708 23.1484L27.0869 21.3014L27.0872 21.3013L27.2711 23.1484Z" fill="#4CAF4F" mask="url(#path-4-inside-2_211_2338)"/>
</svg>
