<svg width="35" height="34" viewBox="0 0 35 34" fill="none" xmlns="http://www.w3.org/2000/svg">
<g clip-path="url(#clip0_211_2332)">
<path d="M12.4102 6.38666C13.9494 6.38675 15.4537 6.8309 16.7441 7.66205L16.999 7.83295C18.2601 8.71539 19.2385 9.94154 19.8193 11.3622L19.9297 11.6494C20.4571 13.0956 20.5556 14.6609 20.2168 16.1581L20.1436 16.456C19.7201 18.0423 18.8189 19.4606 17.5625 20.5175L17.1396 20.873L17.6436 21.1005C19.7131 22.0371 21.4937 23.5112 22.8008 25.3691L22.8057 25.3759L22.8115 25.3828C22.8876 25.4802 22.9479 25.5888 22.9912 25.704L23.0293 25.8222C23.0713 25.9817 23.0799 26.1483 23.0557 26.3115C23.0375 26.4337 23.0009 26.5522 22.9473 26.663L22.8877 26.7714C22.8227 26.8768 22.7426 26.9718 22.6494 27.0527L22.5527 27.1288C22.4179 27.2238 22.2648 27.29 22.1035 27.3242C21.9825 27.3498 21.858 27.3573 21.7354 27.3456L21.6133 27.3271C21.4514 27.2949 21.2972 27.2301 21.1611 27.1367H21.1621C21.0261 27.0433 20.9095 26.9236 20.8213 26.7841L20.8174 26.7773L20.8125 26.7704L20.6309 26.5204C19.7683 25.3673 18.6732 24.4082 17.416 23.706L17.1445 23.5595C15.6822 22.7995 14.0582 22.4024 12.4102 22.4023C10.8649 22.4023 9.34071 22.7519 7.95117 23.4218L7.6748 23.5595C6.30361 24.2722 5.11249 25.2851 4.18848 26.5204L4.00684 26.7704L4.00586 26.7714C3.92232 26.8913 3.81815 26.995 3.69824 27.0771L3.57324 27.1513C3.44367 27.2187 3.30343 27.2621 3.15918 27.2792L3.01367 27.288H3.01172C2.82409 27.2886 2.63984 27.2444 2.47363 27.1611L2.31445 27.0654L2.3125 27.0644L2.21777 26.9902C2.00629 26.8071 1.86371 26.5553 1.81543 26.2773C1.76718 25.9992 1.81669 25.7143 1.9541 25.4706L2.01855 25.3691C3.32562 23.5112 5.10627 22.0371 7.17578 21.1005L7.67969 20.873L7.25684 20.5175C6.07898 19.5266 5.21326 18.2186 4.76074 16.7519L4.67578 16.456C4.27889 14.9689 4.31996 13.4014 4.79004 11.9404L4.88965 11.6494C5.41703 10.2032 6.34932 8.94222 7.57227 8.01459L7.82031 7.83295C9.16554 6.89167 10.7683 6.38666 12.4102 6.38666ZM23.0459 6.39642H23.0479C24.5879 6.39202 26.0942 6.83272 27.3867 7.66205L27.6426 7.83392C28.9057 8.71497 29.8852 9.9409 30.4668 11.3622L30.5781 11.6494C31.106 13.0962 31.2038 14.6625 30.8633 16.1601L30.79 16.4579C30.3645 18.0447 29.4599 19.4621 28.2002 20.5165L27.7754 20.872L28.2803 21.1005C30.2206 21.9786 31.9072 23.329 33.1875 25.0253L33.4375 25.3691L33.4395 25.371C33.5092 25.4686 33.5636 25.5761 33.6016 25.6894L33.6338 25.8036C33.6605 25.9205 33.6698 26.041 33.6611 26.1601L33.6465 26.2783C33.626 26.3963 33.5881 26.5107 33.5342 26.6171L33.4746 26.7206C33.4102 26.8215 33.331 26.9118 33.2402 26.9892L33.1455 27.0624L33.1416 27.0654C32.9383 27.2107 32.6942 27.2879 32.4443 27.287C32.2492 27.2857 32.0569 27.2384 31.8838 27.1484C31.754 27.0808 31.6378 26.9907 31.54 26.8828L31.4482 26.7685C30.4992 25.4224 29.241 24.3234 27.7793 23.5644C26.4087 22.8526 24.8965 22.459 23.3555 22.4111L23.0469 22.4062L22.9258 22.4003C22.6869 22.3765 22.4601 22.2829 22.2744 22.1308L22.1855 22.0497C21.9571 21.8213 21.8282 21.5114 21.8281 21.1884C21.8281 20.9056 21.9267 20.6328 22.1045 20.416L22.1855 20.3271C22.414 20.0987 22.7239 19.9706 23.0469 19.9706C24.4314 19.9705 25.7627 19.4543 26.7842 18.5292L26.9844 18.3388C28.0285 17.2945 28.6152 15.878 28.6152 14.4013C28.6152 13.0169 28.0996 11.6854 27.1748 10.664L26.9844 10.4638C26.0053 9.48469 24.6987 8.90798 23.3223 8.83978L23.0469 8.83295C22.6652 8.83225 22.2849 8.87153 21.9121 8.95013L21.541 9.04193L21.4199 9.0722C21.3014 9.09505 21.18 9.09975 21.0596 9.08685C20.9389 9.07393 20.8211 9.04359 20.71 8.99603L20.6016 8.9433C20.4954 8.88485 20.3985 8.81121 20.3145 8.72455L20.2354 8.63373C20.1599 8.53869 20.0988 8.43283 20.0547 8.32025L20.0166 8.20599C19.9837 8.08923 19.9689 7.96842 19.9717 7.8476L19.9805 7.72748C19.9953 7.60718 20.0279 7.49009 20.0771 7.37982L20.1318 7.2724C20.1919 7.16719 20.2665 7.07091 20.3545 6.98822L20.4473 6.9101C20.5433 6.83632 20.6497 6.77755 20.7627 6.73529L20.8779 6.69818L20.8838 6.6972C21.4989 6.52208 22.1329 6.42258 22.7715 6.40131L23.0459 6.39642ZM13.4961 8.94037C12.4834 8.73894 11.4361 8.82299 10.4707 9.18158L10.2783 9.25677C9.32452 9.6519 8.50085 10.3042 7.89746 11.1386L7.7793 11.3076C7.16748 12.2232 6.84089 13.3001 6.84082 14.4013C6.84082 15.7859 7.35629 17.1181 8.28125 18.1396L8.47168 18.3388C9.51599 19.3831 10.9333 19.9706 12.4102 19.9706C13.4425 19.9706 14.4534 19.6835 15.3301 19.1435L15.5029 19.0322C16.3614 18.4585 17.0426 17.6578 17.4717 16.7216L17.5547 16.5322C17.9496 15.5784 18.0705 14.535 17.9072 13.5185L17.8711 13.3154C17.6696 12.3026 17.1911 11.3669 16.4902 10.6122L16.3477 10.4638C15.6175 9.73366 14.6992 9.22246 13.6973 8.98431L13.4961 8.94037Z" fill="#4CAF4F" stroke="#4CAF4F" stroke-width="0.696069"/>
</g>
<defs>
<clipPath id="clip0_211_2332">
<rect width="33.4113" height="33.4113" fill="white" transform="translate(0.924561 0.306213)"/>
</clipPath>
</defs>
</svg>
